<svg width="217" height="67" viewBox="0 0 217 67" fill="none" xmlns="http://www.w3.org/2000/svg">
<g id="Vector">
<path d="M0 64.3V20.2055H8.8561V39.7863L26.7478 20.2055H38.6557L22.1402 37.3801L39.5532 64.3H28.0942L16.0367 43.6063L8.8561 50.9754V64.3H0Z" fill="#1877F2"/>
<path d="M54.2479 42.1023L46.6185 40.7188C47.4761 37.6307 48.9522 35.3448 51.0465 33.8609C53.1409 32.3771 56.2525 31.6352 60.3813 31.6352C64.1312 31.6352 66.9237 32.0863 68.7587 32.9887C70.5937 33.871 71.8803 35.0039 72.6183 36.3875C73.3762 37.751 73.7552 40.2676 73.7552 43.9371L73.6655 53.8027C73.6655 56.61 73.7951 58.6854 74.0544 60.0289C74.3336 61.3523 74.8423 62.776 75.5803 64.3H67.2627C67.0433 63.7385 66.7741 62.9064 66.4549 61.8035C66.3153 61.3022 66.2156 60.9714 66.1557 60.8109C64.7196 62.2146 63.1837 63.2673 61.5482 63.9691C59.9126 64.671 58.1673 65.0219 56.3123 65.0219C53.0411 65.0219 50.4581 64.1296 48.5632 62.3449C46.6883 60.5603 45.7508 58.3044 45.7508 55.5773C45.7508 53.7727 46.1796 52.1685 47.0373 50.7648C47.895 49.3411 49.0918 48.2583 50.6276 47.5164C52.1834 46.7544 54.4174 46.0927 57.3295 45.5312C61.2589 44.7893 63.9816 44.0975 65.4975 43.4559V42.6137C65.4975 40.9895 65.0986 39.8365 64.3007 39.1547C63.5029 38.4529 61.997 38.102 59.7829 38.102C58.287 38.102 57.1201 38.4027 56.2824 39.0043C55.4446 39.5858 54.7665 40.6185 54.2479 42.1023ZM65.4975 48.9602C64.4204 49.3211 62.715 49.7522 60.3813 50.2535C58.0476 50.7548 56.5217 51.2461 55.8037 51.7273C54.7066 52.5094 54.1581 53.502 54.1581 54.7051C54.1581 55.8882 54.5969 56.9108 55.4746 57.773C56.3522 58.6353 57.4692 59.0664 58.8255 59.0664C60.3414 59.0664 61.7875 58.5651 63.1638 57.5625C64.1811 56.8005 64.8493 55.8681 65.1684 54.7652C65.3878 54.0434 65.4975 52.6698 65.4975 50.6445V48.9602Z" fill="#1877F2"/>
<path d="M140.95 66.5H94.9936C92.3818 66.5 89.877 65.457 88.0302 63.6004C86.1834 61.7437 85.1459 59.2256 85.1459 56.6V3.8C85.1459 2.92479 85.4917 2.08542 86.1073 1.46655C86.7229 0.847677 87.5579 0.5 88.4285 0.5H134.384C135.255 0.5 136.09 0.847677 136.706 1.46655C137.321 2.08542 137.667 2.92479 137.667 3.8V43.4H150.797V56.6C150.797 59.2256 149.76 61.7437 147.913 63.6004C146.066 65.457 143.561 66.5 140.95 66.5ZM137.667 50V56.6C137.667 57.4752 138.013 58.3146 138.628 58.9335C139.244 59.5523 140.079 59.9 140.95 59.9C141.82 59.9 142.655 59.5523 143.271 58.9335C143.886 58.3146 144.232 57.4752 144.232 56.6V50H137.667ZM131.102 59.9V7.1H91.711V56.6C91.711 57.4752 92.0569 58.3146 92.6725 58.9335C93.2881 59.5523 94.123 59.9 94.9936 59.9H131.102ZM98.2762 17H124.537V23.6H98.2762V17ZM98.2762 30.2H124.537V36.8H98.2762V30.2ZM98.2762 43.4H114.689V50H98.2762V43.4Z" fill="#1877F2"/>
<path d="M168.044 42.1023L160.414 40.7188C161.272 37.6307 162.748 35.3448 164.842 33.8609C166.937 32.3771 170.048 31.6352 174.177 31.6352C177.927 31.6352 180.719 32.0863 182.554 32.9887C184.389 33.871 185.676 35.0039 186.414 36.3875C187.172 37.751 187.551 40.2676 187.551 43.9371L187.461 53.8027C187.461 56.61 187.591 58.6854 187.85 60.0289C188.129 61.3523 188.638 62.776 189.376 64.3H181.058C180.839 63.7385 180.57 62.9064 180.251 61.8035C180.111 61.3022 180.011 60.9714 179.951 60.8109C178.515 62.2146 176.979 63.2673 175.344 63.9691C173.708 64.671 171.963 65.0219 170.108 65.0219C166.837 65.0219 164.254 64.1296 162.359 62.3449C160.484 60.5603 159.547 58.3044 159.547 55.5773C159.547 53.7727 159.975 52.1685 160.833 50.7648C161.691 49.3411 162.887 48.2583 164.423 47.5164C165.979 46.7544 168.213 46.0927 171.125 45.5312C175.055 44.7893 177.777 44.0975 179.293 43.4559V42.6137C179.293 40.9895 178.894 39.8365 178.096 39.1547C177.299 38.4529 175.793 38.102 173.579 38.102C172.083 38.102 170.916 38.4027 170.078 39.0043C169.24 39.5858 168.562 40.6185 168.044 42.1023ZM179.293 48.9602C178.216 49.3211 176.511 49.7522 174.177 50.2535C171.843 50.7548 170.317 51.2461 169.599 51.7273C168.502 52.5094 167.954 53.502 167.954 54.7051C167.954 55.8882 168.393 56.9108 169.27 57.773C170.148 58.6353 171.265 59.0664 172.621 59.0664C174.137 59.0664 175.583 58.5651 176.96 57.5625C177.977 56.8005 178.645 55.8681 178.964 54.7652C179.184 54.0434 179.293 52.6698 179.293 50.6445V48.9602Z" fill="#1877F2"/>
<path d="M204.823 64.3H196.416V32.357H204.224V36.8988C205.561 34.7533 206.758 33.3396 207.815 32.6578C208.892 31.976 210.109 31.6352 211.465 31.6352C213.38 31.6352 215.225 32.1665 217 33.2293L214.397 40.5984C212.981 39.676 211.664 39.2148 210.448 39.2148C209.271 39.2148 208.274 39.5457 207.456 40.2074C206.638 40.8491 205.99 42.0221 205.511 43.7266C205.052 45.431 204.823 49.0003 204.823 54.4344V64.3Z" fill="#1877F2"/>
</g>
</svg>
